# xmcd
#
# Track frame offsets:
#	182
#	18045
#	35637
#	55822
#
# Disc length: 1007 seconds
#
# Revision: 0
# Processed by: cddbd v1.5.2PL0 Copyright (c) Steve Scherf et al.
# Submitted via: dBpowerAMP V4.0
#
DISCID=2703ed04
DTITLE=Lil' Mo - Superwoman
DYEAR=2001
DGENRE=R&B
TTITLE0=Superwoman (Amended Version W/Rap)
TTITLE1=Superwoman (Instrumental)
TTITLE2=Superwoman Pt II Featuring Fabolous (Amended Version W/Rap)
TTITLE3=Superwoman Pt. II (Instrumental)
EXTD=
EXTT0=
EXTT1=
EXTT2=
EXTT3=
PLAYORDER=
